<svg width="40" height="40" viewBox="0 0 40 40" fill="none" xmlns="http://www.w3.org/2000/svg">
<path d="M40 20C40 31.0457 31.0457 40 20 40C8.9543 40 0 31.0457 0 20C0 8.9543 8.9543 0 20 0C31.0457 0 40 8.9543 40 20ZM2 20C2 29.9411 10.0589 38 20 38C29.9411 38 38 29.9411 38 20C38 10.0589 29.9411 2 20 2C10.0589 2 2 10.0589 2 20Z" fill="#F3C8CA"/>
<circle cx="20" cy="14" r="4" fill="#454C44" stroke="#454C44" stroke-width="1.5"/>
<ellipse cx="20" cy="25" rx="7" ry="4" fill="#454C44" stroke="#454C44" stroke-width="1.5"/>
</svg>
