<svg width="288" height="346" viewBox="0 0 288 346" fill="none" xmlns="http://www.w3.org/2000/svg">
<rect width="288" height="346" rx="8" fill="#E3E3E3"/>
<ellipse cx="144" cy="177.167" rx="12.5" ry="12.5" stroke="#0E0E0E" stroke-width="4"/>
<path d="M134.739 210.5H153.258C166.262 210.5 172.764 210.5 177.435 207.436C179.457 206.109 181.193 204.405 182.544 202.419C185.665 197.834 185.665 191.45 185.665 178.682C185.665 165.914 185.665 159.53 182.544 154.944C181.193 152.959 179.457 151.254 177.435 149.928C174.434 147.959 170.676 147.255 164.924 147.004C162.178 147.004 159.815 144.961 159.276 142.318C158.469 138.354 154.923 135.5 150.806 135.5H137.192C133.074 135.5 129.528 138.354 128.721 142.318C128.183 144.961 125.819 147.004 123.074 147.004C117.321 147.255 113.564 147.959 110.562 149.928C108.54 151.254 106.804 152.959 105.453 154.944C102.332 159.53 102.332 165.914 102.332 178.682C102.332 191.45 102.332 197.834 105.453 202.419C106.804 204.405 108.54 206.109 110.562 207.436C115.233 210.5 121.735 210.5 134.739 210.5Z" stroke="#0E0E0E" stroke-width="4"/>
<path d="M173.167 164.667H169" stroke="#0E0E0E" stroke-width="4" stroke-linecap="round"/>
</svg>
