<svg width="24" height="25" viewBox="0 0 24 25" fill="none" xmlns="http://www.w3.org/2000/svg">
<path d="M21.9999 8.66234L21.9999 8.73487C21.9999 9.59561 21.9999 10.026 21.7927 10.3781C21.5855 10.7302 21.2093 10.9392 20.4569 11.3572L19.6636 11.798C20.2102 9.94984 20.3926 7.96414 20.4601 6.26597C20.4629 6.19316 20.4662 6.11945 20.4695 6.04497L20.4718 5.99279C21.1231 6.21896 21.4887 6.38758 21.7168 6.70408C22 7.09692 22 7.61873 21.9999 8.66234Z" fill="#959595"/>
<path d="M2 8.66234L2 8.73487C2.00003 9.59561 2.00004 10.026 2.20723 10.3781C2.41442 10.7302 2.79063 10.9392 3.54305 11.3572L4.33681 11.7982C3.79007 9.95001 3.60767 7.96422 3.54025 6.26597C3.53736 6.19316 3.5341 6.11945 3.53081 6.04497L3.5285 5.99266C2.87701 6.2189 2.51126 6.38752 2.2831 6.70408C1.99996 7.09692 1.99997 7.61873 2 8.66234Z" fill="#959595"/>
<path fill-rule="evenodd" clip-rule="evenodd" d="M16.3771 2.84674C15.2531 2.65709 13.7837 2.5 12.0002 2.5C10.2166 2.5 8.74724 2.65709 7.62318 2.84674C6.48445 3.03887 5.91508 3.13494 5.43937 3.72083C4.96365 4.30673 4.98879 4.93998 5.03907 6.20647C5.21169 10.5544 6.14996 15.9851 11.25 16.4657V20H9.8198C9.34312 20 8.93271 20.3365 8.83922 20.8039L8.65 21.75H6C5.58579 21.75 5.25 22.0858 5.25 22.5C5.25 22.9142 5.58579 23.25 6 23.25H18C18.4142 23.25 18.75 22.9142 18.75 22.5C18.75 22.0858 18.4142 21.75 18 21.75H15.35L15.1608 20.8039C15.0673 20.3365 14.6569 20 14.1802 20H12.75V16.4657C17.8503 15.9853 18.7886 10.5545 18.9612 6.20647C19.0115 4.93998 19.0367 4.30673 18.5609 3.72083C18.0852 3.13494 17.5159 3.03887 16.3771 2.84674Z" fill="#959595"/>
</svg>
