<svg width="24" height="25" viewBox="0 0 24 25" fill="none" xmlns="http://www.w3.org/2000/svg">
<path fill-rule="evenodd" clip-rule="evenodd" d="M2 12.5V8.5C2 5.67157 2 4.25736 2.87868 3.37868C3.75736 2.5 5.17157 2.5 8 2.5H16C18.8284 2.5 20.2426 2.5 21.1213 3.37868C22 4.25736 22 5.67157 22 8.5V12.5C22 15.3284 22 16.7426 21.1213 17.6213C20.4749 18.2677 19.5388 18.4386 17.963 18.4838C17.9593 17.748 17.7037 17.0132 17.1961 16.4176C17.1674 16.3839 17.1501 16.342 17.1465 16.2979C17.0211 14.7264 15.7733 13.4785 14.2018 13.3531C14.1577 13.3496 14.1158 13.3322 14.0821 13.3035C12.8822 12.281 11.1174 12.281 9.91755 13.3035C9.88386 13.3322 9.84198 13.3496 9.79786 13.3531C8.22638 13.4785 6.9785 14.7264 6.85309 16.2979C6.84957 16.342 6.83222 16.3839 6.80352 16.4176C6.29595 17.0132 6.04033 17.748 6.03666 18.4838C4.4611 18.4386 3.52501 18.2677 2.87868 17.6213C2 16.7426 2 15.3284 2 12.5ZM8.25 6.5C8.25 6.08579 8.58579 5.75 9 5.75H15C15.4142 5.75 15.75 6.08579 15.75 6.5C15.75 6.91421 15.4142 7.25 15 7.25H9C8.58579 7.25 8.25 6.91421 8.25 6.5ZM7 9.25C6.58579 9.25 6.25 9.58579 6.25 10C6.25 10.4142 6.58579 10.75 7 10.75H17C17.4142 10.75 17.75 10.4142 17.75 10C17.75 9.58579 17.4142 9.25 17 9.25H7Z" fill="#959595"/>
<path fill-rule="evenodd" clip-rule="evenodd" d="M13.1092 14.4452C12.4699 13.9004 11.5297 13.9004 10.8905 14.4452C10.6165 14.6786 10.276 14.8197 9.91719 14.8483C9.07997 14.9152 8.41515 15.58 8.34834 16.4172C8.31971 16.776 8.17863 17.1165 7.94519 17.3905C7.40043 18.0297 7.40043 18.9699 7.94519 19.6092C8.17863 19.8831 8.31971 20.2237 8.34834 20.5824C8.41515 21.4197 9.07997 22.0845 9.91719 22.1513C10.276 22.1799 10.6165 22.321 10.8905 22.5544C11.5297 23.0992 12.4699 23.0992 13.1092 22.5544C13.3831 22.321 13.7237 22.1799 14.0824 22.1513C14.9197 22.0845 15.5845 21.4197 15.6513 20.5824C15.6799 20.2237 15.821 19.8831 16.0544 19.6092C16.5992 18.9699 16.5992 18.0297 16.0544 17.3905C15.821 17.1165 15.6799 16.776 15.6513 16.4172C15.5845 15.58 14.9197 14.9152 14.0824 14.8483C13.7237 14.8197 13.3831 14.6786 13.1092 14.4452ZM14.0117 18.0483C14.3146 17.7657 14.3309 17.2911 14.0483 16.9883C13.7657 16.6855 13.2911 16.6691 12.9883 16.9517L11.3571 18.4741L11.0117 18.1517C10.7089 17.8691 10.2343 17.8855 9.95171 18.1883C9.66909 18.4911 9.68545 18.9657 9.98826 19.2483L10.8454 20.0483C11.1336 20.3172 11.5807 20.3172 11.8689 20.0483L14.0117 18.0483Z" fill="#959595"/>
</svg>
