<svg width="20" height="18" viewBox="0 0 20 18" fill="none" xmlns="http://www.w3.org/2000/svg">
<path d="M12.2172 0.49965C10.7962 -0.16655 9.20372 -0.16655 7.78272 0.499649L1.0916 3.63659C0.0156027 4.14105 -0.264933 5.56352 0.25 6.54666L0.25 11.5C0.25 11.9142 0.585786 12.25 1 12.25C1.41421 12.25 1.75 11.9142 1.75 11.5V7.67204L7.78281 10.5003C9.20381 11.1665 10.7963 11.1665 12.2173 10.5003L18.9084 7.36341C20.3639 6.68105 20.3639 4.31899 18.9084 3.63664L12.2172 0.49965Z" fill="#454C44"/>
<path d="M3 9.91473V13.6254C3 14.6334 3.5035 15.5772 4.38533 16.0656C5.8537 16.8787 8.20399 18 10 18C11.796 18 14.1463 16.8787 15.6147 16.0656C16.4965 15.5772 17 14.6334 17 13.6254V9.91477L12.854 11.8585C11.0296 12.7138 8.9705 12.7138 7.14607 11.8585L3 9.91473Z" fill="#454C44"/>
</svg>
