<svg width="21" height="20" viewBox="0 0 21 20" fill="none" xmlns="http://www.w3.org/2000/svg">
<path fill-rule="evenodd" clip-rule="evenodd" d="M0.361084 9.25C0.74461 4.07745 5.06283 0 10.3334 0C9.50252 -2.21785e-07 8.76276 0.364208 8.15418 0.921127C7.54866 1.47525 7.03696 2.24878 6.62308 3.16315C6.20677 4.08292 5.88339 5.15868 5.66451 6.32611C5.48905 7.26194 5.38228 8.24852 5.34669 9.25H0.361084ZM0.361084 10.75H5.34669C5.38228 11.7515 5.48905 12.7381 5.66451 13.6739C5.88339 14.8413 6.20677 15.9171 6.62308 16.8368C7.03696 17.7512 7.54866 18.5247 8.15418 19.0789C8.76276 19.6358 9.50252 20 10.3334 20C5.06283 20 0.744609 15.9226 0.361084 10.75Z" fill="#454C44"/>
<path d="M10.3334 1.39535C10.0584 1.39535 9.7031 1.51236 9.28999 1.89042C8.87382 2.27126 8.45719 2.86815 8.0891 3.68137C7.72345 4.4892 7.42654 5.46441 7.22222 6.55419C7.06131 7.41242 6.96149 8.32219 6.92646 9.25H13.7403C13.7053 8.32219 13.6055 7.41242 13.4445 6.5542C13.2402 5.46441 12.9433 4.48921 12.5777 3.68137C12.2096 2.86815 11.7929 2.27126 11.3768 1.89042C10.9637 1.51236 10.6084 1.39535 10.3334 1.39535Z" fill="#454C44"/>
<path d="M7.22222 13.4458C7.42654 14.5356 7.72345 15.5108 8.0891 16.3186C8.45719 17.1319 8.87382 17.7287 9.28998 18.1096C9.7031 18.4876 10.0584 18.6047 10.3334 18.6047C10.6084 18.6047 10.9637 18.4876 11.3768 18.1096C11.7929 17.7287 12.2096 17.1319 12.5777 16.3186C12.9433 15.5108 13.2402 14.5356 13.4445 13.4458C13.6055 12.5876 13.7053 11.6778 13.7403 10.75H6.92646C6.96149 11.6778 7.06131 12.5876 7.22222 13.4458Z" fill="#454C44"/>
<path d="M10.3334 0C11.1642 2.21785e-07 11.904 0.364209 12.5126 0.921128C13.1181 1.47525 13.6298 2.24878 14.0437 3.16315C14.46 4.08292 14.7834 5.15868 15.0023 6.32612C15.1777 7.26194 15.2845 8.24852 15.3201 9.25H20.3057C19.9222 4.07745 15.6039 0 10.3334 0Z" fill="#454C44"/>
<path d="M15.0023 13.6739C14.7834 14.8413 14.46 15.9171 14.0437 16.8368C13.6298 17.7512 13.1181 18.5247 12.5126 19.0789C11.904 19.6358 11.1642 20 10.3334 20C15.6039 20 19.9222 15.9226 20.3057 10.75H15.3201C15.2845 11.7515 15.1777 12.7381 15.0023 13.6739Z" fill="#454C44"/>
</svg>
