<svg width="201" height="48" viewBox="0 0 201 48" fill="none" xmlns="http://www.w3.org/2000/svg">
<path d="M106.145 19.556C125.536 47.3529 104.064 14.0281 72.354 27.8773C19.5743 50.9284 -4.52003 22.3139 0.696818 8.72911C6.81872 -7.21244 28.0795 3.39512 45.7485 4.21159C70.1177 5.33769 92.5643 0.0874367 106.145 19.556Z" fill="#F3C8CA"/>
<path d="M105.089 31.3048C158.635 47.8425 71.7263 -19.9515 162.267 7.11257C252.808 34.1766 159.211 48.7296 136.943 47.9718C120.603 47.4158 103.249 41.1702 89.8566 29.9447C83.2676 24.4217 85.1855 25.1575 105.089 31.3048Z" fill="#F3C8CA"/>
<path d="M8.04883 9.33364H12.7142C14.6283 9.33364 16.1834 9.80003 17.3797 10.7328C18.5759 11.6656 19.1741 12.9363 19.1741 14.545C19.1741 16.1537 18.5759 17.4245 17.3797 18.3572C16.1834 19.29 14.6283 19.7564 12.7142 19.7564H9.69545V23.5281H8.04883V9.33364ZM9.69545 18.2761H12.8198C14.199 18.2761 15.339 17.9652 16.2397 17.3433C17.1545 16.7215 17.6119 15.7887 17.6119 14.545C17.6119 13.3148 17.1545 12.3888 16.2397 11.767C15.339 11.1316 14.199 10.8139 12.8198 10.8139H9.69545V18.2761Z" fill="#252A26"/>
<path d="M32.0605 23.5281H30.9839L30.8784 21.2164C30.4843 22.041 29.9073 22.6561 29.1473 23.0617C28.3873 23.4672 27.571 23.67 26.6985 23.67C25.2489 23.67 24.116 23.2442 23.2997 22.3925C22.4975 21.5408 22.0964 20.358 22.0964 18.8439V13.3892H23.6374V18.7628C23.6374 19.9389 23.926 20.8176 24.503 21.3989C25.08 21.9667 25.8822 22.2506 26.9096 22.2506C28.0214 22.2506 28.901 21.8991 29.5484 21.1961C30.2099 20.4932 30.5406 19.4995 30.5406 18.2153V13.3892H32.0605V23.5281Z" fill="#252A26"/>
<path d="M37.4318 9.33364V15.4575C37.7978 14.7951 38.3255 14.2611 39.0151 13.8556C39.7188 13.45 40.4929 13.2472 41.3373 13.2472C42.8291 13.2472 44.0817 13.7542 45.095 14.7681C46.1083 15.782 46.6149 17.0121 46.6149 18.4586C46.6149 19.9051 46.1083 21.1353 45.095 22.1492C44.0817 23.1495 42.8291 23.6497 41.3373 23.6497C40.4084 23.6497 39.564 23.4334 38.804 23.0008C38.044 22.5547 37.46 21.9667 37.0519 21.2367L36.9885 23.5281H35.8908V9.33364H37.4318ZM41.2106 14.6667C40.141 14.6667 39.2262 15.0317 38.4663 15.7617C37.7063 16.4782 37.3263 17.3771 37.3263 18.4586C37.3263 19.5401 37.7063 20.4391 38.4663 21.1556C39.2262 21.872 40.141 22.2303 41.2106 22.2303C42.2802 22.2303 43.188 21.872 43.9339 21.1556C44.6939 20.4391 45.0738 19.5401 45.0738 18.4586C45.0738 17.3771 44.6939 16.4782 43.9339 15.7617C43.1739 15.0317 42.2662 14.6667 41.2106 14.6667Z" fill="#252A26"/>
<path d="M49.6027 23.5281V9.33364H51.1438V23.5281H49.6027Z" fill="#252A26"/>
<path d="M56.7532 11.8886C56.5703 12.0509 56.3451 12.132 56.0777 12.132C55.8103 12.132 55.5851 12.0509 55.4022 11.8886C55.2192 11.7264 55.1277 11.5304 55.1277 11.3006C55.1277 11.0708 55.2192 10.8748 55.4022 10.7125C55.5851 10.5503 55.8103 10.4692 56.0777 10.4692C56.3451 10.4692 56.5703 10.5503 56.7532 10.7125C56.9362 10.8748 57.0277 11.0708 57.0277 11.3006C57.0277 11.5304 56.9362 11.7264 56.7532 11.8886ZM55.2966 23.5281V13.3892H56.8377V23.5281H55.2966Z" fill="#252A26"/>
<path d="M65.7099 13.2472C67.3987 13.2472 68.785 13.8759 69.8686 15.1331L68.9398 16.0861C68.0391 15.1398 66.9624 14.6667 65.7099 14.6667C64.6403 14.6667 63.7255 15.0317 62.9655 15.7617C62.2196 16.4782 61.8466 17.3771 61.8466 18.4586C61.8466 19.5401 62.2196 20.4391 62.9655 21.1556C63.7255 21.872 64.6403 22.2303 65.7099 22.2303C66.9765 22.2303 68.0531 21.7639 68.9398 20.8311L69.8686 21.7842C68.785 23.0279 67.3987 23.6497 65.7099 23.6497C64.204 23.6497 62.9233 23.1428 61.8678 22.1289C60.8263 21.115 60.3056 19.8916 60.3056 18.4586C60.3056 17.0121 60.8333 15.782 61.8889 14.7681C62.9444 13.7542 64.218 13.2472 65.7099 13.2472Z" fill="#252A26"/>
<path d="M83.476 13.2472H83.7082C84.5104 13.2472 85.2915 13.423 86.0515 13.7745C86.8255 14.1124 87.4237 14.5653 87.8459 15.1331L86.9592 15.9239C86.6215 15.4778 86.143 15.1196 85.5237 14.8492C84.9045 14.5788 84.3064 14.4436 83.7293 14.4436H83.5604C82.8286 14.4436 82.2234 14.5923 81.7449 14.8897C81.2664 15.1736 81.0272 15.5657 81.0272 16.0658C81.0272 16.4849 81.182 16.8161 81.4916 17.0595C81.8153 17.3028 82.4134 17.4718 83.286 17.5664L84.5315 17.6881C85.0241 17.7286 85.4604 17.803 85.8404 17.9111C86.2204 18.0193 86.5863 18.1815 86.9381 18.3978C87.304 18.6006 87.5855 18.898 87.7825 19.29C87.9796 19.6685 88.0781 20.1214 88.0781 20.6486C88.0781 21.5544 87.6911 22.2844 86.917 22.8386C86.157 23.3793 85.1719 23.6565 83.9615 23.67H83.8138C82.8145 23.67 81.8786 23.4807 81.0061 23.1022C80.1335 22.7237 79.5143 22.2303 79.1483 21.6219L80.035 20.8108C80.3305 21.284 80.8372 21.676 81.5549 21.9869C82.2727 22.2979 83.0186 22.4533 83.7927 22.4533H83.8771C84.6512 22.4398 85.2915 22.2844 85.7982 21.9869C86.3048 21.6895 86.5581 21.2637 86.5581 20.7094C86.5581 20.2633 86.4385 19.9119 86.1993 19.655C85.96 19.3846 85.6926 19.2157 85.3971 19.1481C85.1156 19.067 84.7356 18.9994 84.2571 18.9453L83.0538 18.8236C80.6753 18.5938 79.4861 17.7016 79.4861 16.147C79.4861 15.2683 79.8661 14.5721 80.6261 14.0584C81.3861 13.5311 82.336 13.2608 83.476 13.2472Z" fill="#252A26"/>
<path d="M96.3076 13.2472C97.7994 13.2472 99.0519 13.7542 100.065 14.7681C101.079 15.782 101.585 17.0121 101.585 18.4586C101.585 19.9051 101.079 21.1353 100.065 22.1492C99.0519 23.1495 97.7994 23.6497 96.3076 23.6497C95.4631 23.6497 94.6891 23.4537 93.9854 23.0617C93.2958 22.6561 92.768 22.1221 92.4021 21.4597V27.2592H90.8611V13.3892H91.9588L92.0221 15.6806C92.4303 14.9506 93.0143 14.3625 93.7743 13.9164C94.5343 13.4703 95.3787 13.2472 96.3076 13.2472ZM96.1809 14.6667C95.1113 14.6667 94.1965 15.0317 93.4365 15.7617C92.6765 16.4782 92.2966 17.3771 92.2966 18.4586C92.2966 19.5401 92.6765 20.4458 93.4365 21.1758C94.1965 21.8923 95.1113 22.2506 96.1809 22.2506C97.2364 22.2506 98.1442 21.8923 98.9042 21.1758C99.6641 20.4458 100.044 19.5401 100.044 18.4586C100.044 17.3771 99.6641 16.4782 98.9042 15.7617C98.1442 15.0317 97.2364 14.6667 96.1809 14.6667Z" fill="#252A26"/>
<path d="M109.6 13.2472C110.74 13.2472 111.718 13.5109 112.534 14.0381C113.35 14.5653 113.956 15.2885 114.35 16.2078C114.519 16.5998 114.617 17.0527 114.645 17.5664C114.687 18.0801 114.652 18.4924 114.54 18.8033H105.8C105.8 19.8713 106.166 20.723 106.898 21.3583C107.644 21.9802 108.601 22.2979 109.769 22.3114C111.106 22.3114 112.323 21.9464 113.421 21.2164L114.244 22.1086C112.879 23.136 111.387 23.6497 109.769 23.6497C108.136 23.6362 106.806 23.1495 105.779 22.1897C104.751 21.2299 104.238 19.9862 104.238 18.4586C104.238 16.9851 104.73 15.7482 105.715 14.7478C106.715 13.7474 108.009 13.2472 109.6 13.2472ZM109.6 14.6059C108.558 14.6059 107.686 14.9168 106.982 15.5386C106.292 16.1605 105.919 16.9175 105.863 17.8097H113.146C113.174 17.4583 113.097 17.073 112.914 16.6539C112.647 16.0321 112.225 15.5386 111.647 15.1736C111.07 14.7951 110.388 14.6059 109.6 14.6059Z" fill="#252A26"/>
<path d="M137.599 23.5281L135.868 20.9731C135.333 20.1755 134.897 19.6482 134.559 19.3914C134.235 19.1345 133.715 19.0061 132.997 19.0061H131.393V23.5281H129.851V9.33364H131.393V17.5867H132.765C133.482 17.5867 134.003 17.4583 134.327 17.2014C134.665 16.9446 135.101 16.4173 135.636 15.6197L137.156 13.3892H138.887L136.902 16.2686C136.494 16.8634 136.149 17.3095 135.868 17.607C135.601 17.9044 135.312 18.1207 135.002 18.2558C135.382 18.364 135.72 18.5735 136.016 18.8845C136.325 19.1954 136.698 19.6753 137.135 20.3242L139.309 23.5281H137.599Z" fill="#252A26"/>
<path d="M143.764 11.8886C143.581 12.0509 143.356 12.132 143.088 12.132C142.821 12.132 142.596 12.0509 142.413 11.8886C142.23 11.7264 142.138 11.5304 142.138 11.3006C142.138 11.0708 142.23 10.8748 142.413 10.7125C142.596 10.5503 142.821 10.4692 143.088 10.4692C143.356 10.4692 143.581 10.5503 143.764 10.7125C143.947 10.8748 144.038 11.0708 144.038 11.3006C144.038 11.5304 143.947 11.7264 143.764 11.8886ZM142.307 23.5281V13.3892H143.848V23.5281H142.307Z" fill="#252A26"/>
<path d="M153.333 13.2472C154.768 13.2472 155.887 13.6731 156.689 14.5247C157.506 15.3764 157.914 16.5593 157.914 18.0733V23.5281H156.394V18.1342C156.394 16.9716 156.098 16.1064 155.507 15.5386C154.93 14.9573 154.135 14.6667 153.122 14.6667C152.01 14.6667 151.123 15.0182 150.462 15.7211C149.814 16.4241 149.491 17.4177 149.491 18.702V23.5281H147.95V13.3892H149.047L149.132 15.7009C149.526 14.8762 150.103 14.2611 150.863 13.8556C151.623 13.45 152.446 13.2472 153.333 13.2472Z" fill="#252A26"/>
<path d="M166.28 13.2472C167.195 13.2472 168.032 13.4703 168.792 13.9164C169.552 14.349 170.137 14.9235 170.545 15.64L170.629 13.3892H171.727V22.2506C171.727 23.8052 171.276 25.0489 170.376 25.9817C169.489 26.9144 168.23 27.3876 166.597 27.4011C164.88 27.4011 163.367 26.8874 162.058 25.86L162.945 24.9272C164.099 25.6842 165.316 26.0628 166.597 26.0628C167.751 26.0628 168.631 25.7586 169.236 25.1503C169.855 24.5419 170.165 23.6768 170.165 22.5547V21.3381C169.785 21.9869 169.25 22.5142 168.56 22.9197C167.871 23.3118 167.111 23.5078 166.28 23.5078C164.789 23.5078 163.536 23.0076 162.523 22.0072C161.509 21.0069 161.003 19.797 161.003 18.3775C161.003 16.9716 161.509 15.7684 162.523 14.7681C163.536 13.7542 164.789 13.2472 166.28 13.2472ZM166.386 14.6667C165.33 14.6667 164.423 15.0249 163.663 15.7414C162.903 16.4579 162.523 17.3366 162.523 18.3775C162.523 19.432 162.903 20.3174 163.663 21.0339C164.423 21.7369 165.33 22.0883 166.386 22.0883C167.455 22.0883 168.37 21.7369 169.13 21.0339C169.89 20.3174 170.27 19.432 170.27 18.3775C170.27 17.3366 169.89 16.4579 169.13 15.7414C168.37 15.0249 167.455 14.6667 166.386 14.6667Z" fill="#252A26"/>
<path d="M59.4822 30.6253V33.6872C59.6652 33.356 59.929 33.089 60.2738 32.8862C60.6257 32.6834 61.0127 32.5821 61.4349 32.5821C62.1808 32.5821 62.8071 32.8355 63.3138 33.3425C63.8204 33.8494 64.0737 34.4645 64.0737 35.1877C64.0737 35.911 63.8204 36.5261 63.3138 37.033C62.8071 37.5332 62.1808 37.7833 61.4349 37.7833C60.9705 37.7833 60.5483 37.6751 60.1683 37.4589C59.7883 37.2358 59.4963 36.9418 59.2922 36.5768L59.2605 37.7225H58.7117V30.6253H59.4822ZM61.3716 33.2918C60.8368 33.2918 60.3794 33.4743 59.9994 33.8393C59.6194 34.1975 59.4294 34.647 59.4294 35.1877C59.4294 35.7285 59.6194 36.178 59.9994 36.5362C60.3794 36.8945 60.8368 37.0736 61.3716 37.0736C61.9064 37.0736 62.3603 36.8945 62.7332 36.5362C63.1132 36.178 63.3032 35.7285 63.3032 35.1877C63.3032 34.647 63.1132 34.1975 62.7332 33.8393C62.3532 33.4743 61.8994 33.2918 61.3716 33.2918Z" fill="#252A26"/>
<path d="M70.7136 32.653V37.0837C70.7136 37.861 70.4885 38.4829 70.0381 38.9493C69.5948 39.4156 68.965 39.6522 68.1487 39.659C67.2902 39.659 66.5338 39.4021 65.8793 38.8884L66.3227 38.422C66.8997 38.8006 67.5084 38.9898 68.1487 38.9898C68.7257 38.9898 69.1655 38.8377 69.4681 38.5336C69.7777 38.2294 69.9326 37.7934 69.9326 37.2257V36.6275C69.7496 36.9925 69.4822 37.2662 69.1304 37.4487C68.7785 37.6244 68.4091 37.7123 68.022 37.7123C67.2973 37.7123 66.7308 37.4994 66.3227 37.0736C65.9216 36.6477 65.721 36.0563 65.721 35.2993V32.653H66.4915V35.2689C66.4915 35.8569 66.6358 36.2929 66.9243 36.5768C67.2128 36.8607 67.6139 37.0026 68.1276 37.0026C68.6835 37.0026 69.1233 36.8269 69.447 36.4754C69.7777 36.1239 69.9431 35.6305 69.9431 34.9951V32.653H70.7136Z" fill="#252A26"/>
<path d="M77.1912 35.8366L76.389 37.7225H75.4812L78.5423 30.6253H79.0067L82.0572 37.7225H81.1494L80.3472 35.8366H77.1912ZM78.7745 32.0853L77.4867 35.0965H80.0622L78.7745 32.0853Z" fill="#252A26"/>
<path d="M86.0803 32.5821C86.798 32.5821 87.3575 32.795 87.7586 33.2208C88.1667 33.6466 88.3708 34.2381 88.3708 34.9951V37.7225H87.6108V35.0255C87.6108 34.4442 87.463 34.0116 87.1675 33.7277C86.879 33.4371 86.4814 33.2918 85.9747 33.2918C85.4188 33.2918 84.9755 33.4675 84.6448 33.819C84.3211 34.1705 84.1592 34.6673 84.1592 35.3094V37.7225H83.3887V32.653H83.9376L83.9798 33.8089C84.1768 33.3965 84.4653 33.089 84.8453 32.8862C85.2253 32.6834 85.637 32.5821 86.0803 32.5821Z" fill="#252A26"/>
<path d="M95.3301 37.7225H94.7812L94.7495 36.5768C94.5455 36.9418 94.2534 37.2358 93.8734 37.4589C93.4934 37.6751 93.0712 37.7833 92.6068 37.7833C91.8609 37.7833 91.2346 37.5332 90.728 37.033C90.2213 36.5261 89.968 35.911 89.968 35.1877C89.968 34.4645 90.2213 33.8494 90.728 33.3425C91.2346 32.8355 91.8609 32.5821 92.6068 32.5821C93.0642 32.5821 93.4829 32.6936 93.8629 32.9166C94.2499 33.1329 94.5455 33.4236 94.7495 33.7886L94.7812 32.653H95.3301V37.7225ZM91.2874 36.5362C91.6674 36.8945 92.1248 37.0736 92.6596 37.0736C93.1944 37.0736 93.6518 36.8945 94.0318 36.5362C94.4118 36.178 94.6018 35.7285 94.6018 35.1877C94.6018 34.647 94.4118 34.1975 94.0318 33.8393C93.6518 33.4743 93.1944 33.2918 92.6596 33.2918C92.1318 33.2918 91.6779 33.4743 91.298 33.8393C90.918 34.1975 90.728 34.647 90.728 35.1877C90.728 35.7285 90.9145 36.178 91.2874 36.5362Z" fill="#252A26"/>
<path d="M99.1412 32.5821H99.2573C99.6584 32.5821 100.049 32.6699 100.429 32.8457C100.816 33.0146 101.115 33.2411 101.326 33.525L100.883 33.9204C100.714 33.6973 100.475 33.5182 100.165 33.383C99.8554 33.2478 99.5563 33.1802 99.2678 33.1802H99.1834C98.8175 33.1802 98.5149 33.2546 98.2756 33.4033C98.0364 33.5452 97.9168 33.7413 97.9168 33.9914C97.9168 34.2009 97.9942 34.3665 98.149 34.4882C98.3108 34.6098 98.6099 34.6943 99.0462 34.7416L99.6689 34.8025C99.9152 34.8227 100.133 34.8599 100.323 34.914C100.513 34.9681 100.696 35.0492 100.872 35.1573C101.055 35.2587 101.196 35.4074 101.294 35.6034C101.393 35.7927 101.442 36.0191 101.442 36.2827C101.442 36.7356 101.249 37.1006 100.862 37.3777C100.482 37.6481 99.9891 37.7867 99.3839 37.7934H99.3101C98.8104 37.7934 98.3425 37.6988 97.9062 37.5095C97.4699 37.3203 97.1603 37.0736 96.9773 36.7694L97.4207 36.3638C97.5684 36.6004 97.8218 36.7964 98.1806 36.9519C98.5395 37.1074 98.9125 37.1851 99.2995 37.1851H99.3417C99.7287 37.1783 100.049 37.1006 100.302 36.9519C100.556 36.8032 100.682 36.5903 100.682 36.3132C100.682 36.0901 100.622 35.9144 100.503 35.7859C100.383 35.6507 100.249 35.5663 100.102 35.5325C99.961 35.4919 99.771 35.4581 99.5317 35.4311L98.9301 35.3702C97.7408 35.2553 97.1462 34.8092 97.1462 34.0319C97.1462 33.5926 97.3362 33.2445 97.7162 32.9876C98.0962 32.724 98.5712 32.5888 99.1412 32.5821Z" fill="#252A26"/>
<path d="M104.311 33.3526V37.7225H103.541V33.3526H102.77V32.653H103.541V30.9497H104.311V32.653H105.082V33.3526H104.311Z" fill="#252A26"/>
<path d="M111.658 37.7225H111.109L111.077 36.5768C110.873 36.9418 110.581 37.2358 110.201 37.4589C109.821 37.6751 109.399 37.7833 108.934 37.7833C108.189 37.7833 107.562 37.5332 107.056 37.033C106.549 36.5261 106.296 35.911 106.296 35.1877C106.296 34.4645 106.549 33.8494 107.056 33.3425C107.562 32.8355 108.189 32.5821 108.934 32.5821C109.392 32.5821 109.811 32.6936 110.191 32.9166C110.578 33.1329 110.873 33.4236 111.077 33.7886L111.109 32.653H111.658V37.7225ZM107.615 36.5362C107.995 36.8945 108.452 37.0736 108.987 37.0736C109.522 37.0736 109.979 36.8945 110.359 36.5362C110.739 36.178 110.929 35.7285 110.929 35.1877C110.929 34.647 110.739 34.1975 110.359 33.8393C109.979 33.4743 109.522 33.2918 108.987 33.2918C108.459 33.2918 108.006 33.4743 107.626 33.8393C107.246 34.1975 107.056 34.647 107.056 35.1877C107.056 35.7285 107.242 36.178 107.615 36.5362Z" fill="#252A26"/>
<path d="M115.469 32.5821H115.585C115.986 32.5821 116.377 32.6699 116.757 32.8457C117.144 33.0146 117.443 33.2411 117.654 33.525L117.21 33.9204C117.042 33.6973 116.802 33.5182 116.493 33.383C116.183 33.2478 115.884 33.1802 115.595 33.1802H115.511C115.145 33.1802 114.843 33.2546 114.603 33.4033C114.364 33.5452 114.244 33.7413 114.244 33.9914C114.244 34.2009 114.322 34.3665 114.477 34.4882C114.638 34.6098 114.938 34.6943 115.374 34.7416L115.997 34.8025C116.243 34.8227 116.461 34.8599 116.651 34.914C116.841 34.9681 117.024 35.0492 117.2 35.1573C117.383 35.2587 117.524 35.4074 117.622 35.6034C117.721 35.7927 117.77 36.0191 117.77 36.2827C117.77 36.7356 117.576 37.1006 117.189 37.3777C116.809 37.6481 116.317 37.7867 115.712 37.7934H115.638C115.138 37.7934 114.67 37.6988 114.234 37.5095C113.798 37.3203 113.488 37.0736 113.305 36.7694L113.748 36.3638C113.896 36.6004 114.149 36.7964 114.508 36.9519C114.867 37.1074 115.24 37.1851 115.627 37.1851H115.669C116.056 37.1783 116.377 37.1006 116.63 36.9519C116.883 36.8032 117.01 36.5903 117.01 36.3132C117.01 36.0901 116.95 35.9144 116.83 35.7859C116.711 35.6507 116.577 35.5663 116.429 35.5325C116.289 35.4919 116.099 35.4581 115.859 35.4311L115.258 35.3702C114.068 35.2553 113.474 34.8092 113.474 34.0319C113.474 33.5926 113.664 33.2445 114.044 32.9876C114.424 32.724 114.899 32.5888 115.469 32.5821Z" fill="#252A26"/>
<path d="M120.28 31.9028C120.189 31.9839 120.076 32.0244 119.942 32.0244C119.809 32.0244 119.696 31.9839 119.605 31.9028C119.513 31.8216 119.467 31.7236 119.467 31.6087C119.467 31.4938 119.513 31.3958 119.605 31.3147C119.696 31.2336 119.809 31.193 119.942 31.193C120.076 31.193 120.189 31.2336 120.28 31.3147C120.372 31.3958 120.417 31.4938 120.417 31.6087C120.417 31.7236 120.372 31.8216 120.28 31.9028ZM119.552 37.7225V32.653H120.322V37.7225H119.552Z" fill="#252A26"/>
<path d="M123.239 31.9028C123.147 31.9839 123.034 32.0244 122.901 32.0244C122.767 32.0244 122.655 31.9839 122.563 31.9028C122.472 31.8216 122.426 31.7236 122.426 31.6087C122.426 31.4938 122.472 31.3958 122.563 31.3147C122.655 31.2336 122.767 31.193 122.901 31.193C123.034 31.193 123.147 31.2336 123.239 31.3147C123.33 31.3958 123.376 31.4938 123.376 31.6087C123.376 31.7236 123.33 31.8216 123.239 31.9028ZM122.51 37.7225V32.653H123.281V37.7225H122.51Z" fill="#252A26"/>
<path d="M130.377 37.7225H129.828L129.796 36.5768C129.592 36.9418 129.3 37.2358 128.92 37.4589C128.54 37.6751 128.118 37.7833 127.654 37.7833C126.908 37.7833 126.281 37.5332 125.775 37.033C125.268 36.5261 125.015 35.911 125.015 35.1877C125.015 34.4645 125.268 33.8494 125.775 33.3425C126.281 32.8355 126.908 32.5821 127.654 32.5821C128.111 32.5821 128.53 32.6936 128.91 32.9166C129.297 33.1329 129.592 33.4236 129.796 33.7886L129.828 32.653H130.377V37.7225ZM126.334 36.5362C126.714 36.8945 127.172 37.0736 127.706 37.0736C128.241 37.0736 128.699 36.8945 129.079 36.5362C129.458 36.178 129.648 35.7285 129.648 35.1877C129.648 34.647 129.458 34.1975 129.079 33.8393C128.699 33.4743 128.241 33.2918 127.706 33.2918C127.179 33.2918 126.725 33.4743 126.345 33.8393C125.965 34.1975 125.775 34.647 125.775 35.1877C125.775 35.7285 125.961 36.178 126.334 36.5362Z" fill="#252A26"/>
<path d="M138.034 30.5543H138.15C138.671 30.5543 139.167 30.659 139.638 30.8686C140.117 31.0781 140.511 31.3688 140.82 31.7405L140.282 32.2069C140.029 31.923 139.709 31.7 139.322 31.5378C138.935 31.3755 138.544 31.2944 138.15 31.2944H138.034C137.598 31.2944 137.2 31.4026 136.841 31.6189C136.489 31.8352 136.313 32.1393 136.313 32.5314C136.313 32.8355 136.44 33.0721 136.693 33.2411C136.954 33.4033 137.355 33.5182 137.897 33.5858L138.699 33.6872C139.48 33.7818 140.071 33.988 140.472 34.3057C140.873 34.6166 141.074 35.083 141.074 35.7048C141.074 36.3267 140.81 36.8302 140.282 37.2155C139.761 37.594 139.117 37.7867 138.35 37.7934H138.287C137.576 37.7934 136.961 37.6549 136.44 37.3777C135.926 37.0938 135.55 36.7187 135.311 36.2523L135.849 35.7758C136.025 36.1543 136.324 36.4619 136.746 36.6984C137.168 36.935 137.682 37.0533 138.287 37.0533H138.35C138.892 37.0533 139.343 36.9316 139.702 36.6883C140.067 36.445 140.25 36.1171 140.25 35.7048C140.25 35.3195 140.113 35.0289 139.839 34.8329C139.564 34.6301 139.153 34.4915 138.604 34.4172L137.802 34.3259C137.035 34.2313 136.458 34.0421 136.071 33.7582C135.684 33.4743 135.49 33.0721 135.49 32.5516C135.49 31.9568 135.736 31.4769 136.229 31.1119C136.728 30.7469 137.33 30.561 138.034 30.5543Z" fill="#252A26"/>
<path d="M145.393 32.5821C146.111 32.5821 146.67 32.795 147.071 33.2208C147.479 33.6466 147.683 34.2381 147.683 34.9951V37.7225H146.923V35.0255C146.923 34.4442 146.776 34.0116 146.48 33.7277C146.192 33.4371 145.794 33.2918 145.287 33.2918C144.732 33.2918 144.288 33.4675 143.957 33.819C143.634 34.1705 143.472 34.6673 143.472 35.3094V37.7225H142.701V30.6253H143.472V33.6771C143.655 33.3053 143.922 33.0315 144.274 32.8558C144.633 32.6733 145.006 32.5821 145.393 32.5821Z" fill="#252A26"/>
<path d="M153.523 37.7225L152.657 36.445C152.39 36.0462 152.172 35.7826 152.003 35.6541C151.841 35.5257 151.581 35.4615 151.222 35.4615H150.419V37.7225H149.649V30.6253H150.419V34.7518H151.106C151.464 34.7518 151.725 34.6876 151.887 34.5591C152.055 34.4307 152.274 34.1671 152.541 33.7683L153.301 32.653H154.167L153.174 34.0927C152.97 34.3902 152.798 34.6132 152.657 34.7619C152.523 34.9106 152.379 35.0188 152.224 35.0864C152.414 35.1404 152.583 35.2452 152.731 35.4007C152.886 35.5561 153.072 35.7961 153.29 36.1205L154.378 37.7225H153.523Z" fill="#252A26"/>
<path d="M156.605 31.9028C156.514 31.9839 156.401 32.0244 156.267 32.0244C156.134 32.0244 156.021 31.9839 155.93 31.9028C155.838 31.8216 155.792 31.7236 155.792 31.6087C155.792 31.4938 155.838 31.3958 155.93 31.3147C156.021 31.2336 156.134 31.193 156.267 31.193C156.401 31.193 156.514 31.2336 156.605 31.3147C156.697 31.3958 156.742 31.4938 156.742 31.6087C156.742 31.7236 156.697 31.8216 156.605 31.9028ZM155.877 37.7225V32.653H156.647V37.7225H155.877Z" fill="#252A26"/>
<path d="M161.854 33.2918H161.558C160.841 33.2918 160.313 33.4979 159.975 33.9102C159.637 34.3226 159.468 34.8701 159.468 35.5527V37.7225H158.698V32.653H159.247L159.321 34.0218C159.518 33.5486 159.824 33.1904 160.239 32.9471C160.654 32.7037 161.147 32.5821 161.717 32.5821H161.854V33.2918Z" fill="#252A26"/>
<path d="M164.078 31.9028C163.987 31.9839 163.874 32.0244 163.741 32.0244C163.607 32.0244 163.494 31.9839 163.403 31.9028C163.311 31.8216 163.266 31.7236 163.266 31.6087C163.266 31.4938 163.311 31.3958 163.403 31.3147C163.494 31.2336 163.607 31.193 163.741 31.193C163.874 31.193 163.987 31.2336 164.078 31.3147C164.17 31.3958 164.216 31.4938 164.216 31.6087C164.216 31.7236 164.17 31.8216 164.078 31.9028ZM163.35 37.7225V32.653H164.121V37.7225H163.35Z" fill="#252A26"/>
<path d="M171.217 37.7225H170.668L170.636 36.5768C170.432 36.9418 170.14 37.2358 169.76 37.4589C169.38 37.6751 168.958 37.7833 168.493 37.7833C167.747 37.7833 167.121 37.5332 166.614 37.033C166.108 36.5261 165.854 35.911 165.854 35.1877C165.854 34.4645 166.108 33.8494 166.614 33.3425C167.121 32.8355 167.747 32.5821 168.493 32.5821C168.951 32.5821 169.369 32.6936 169.749 32.9166C170.136 33.1329 170.432 33.4236 170.636 33.7886L170.668 32.653H171.217V37.7225ZM167.174 36.5362C167.554 36.8945 168.011 37.0736 168.546 37.0736C169.081 37.0736 169.538 36.8945 169.918 36.5362C170.298 36.178 170.488 35.7285 170.488 35.1877C170.488 34.647 170.298 34.1975 169.918 33.8393C169.538 33.4743 169.081 33.2918 168.546 33.2918C168.018 33.2918 167.564 33.4743 167.184 33.8393C166.804 34.1975 166.614 34.647 166.614 35.1877C166.614 35.7285 166.801 36.178 167.174 36.5362Z" fill="#252A26"/>
<path d="M121.771 23.4604C124.766 23.4604 127.247 21.0824 127.247 18.2003C127.247 15.3233 124.766 12.9402 121.766 12.9402C118.771 12.9402 116.295 15.3233 116.295 18.2003C116.295 21.0824 118.776 23.4604 121.771 23.4604ZM121.771 22.4267C119.333 22.4267 117.376 20.5426 117.376 18.2003C117.376 15.8579 119.327 13.9789 121.766 13.9789C124.204 13.9789 126.166 15.8579 126.171 18.2003C126.171 20.5426 124.21 22.4267 121.771 22.4267ZM124.098 15.7561C123.621 15.2978 122.98 15.3233 122.487 15.7968L124.061 17.3041C124.56 16.8356 124.575 16.2144 124.098 15.7561ZM121.84 16.9425L119.37 19.4987C119.242 19.6311 119.237 19.789 119.338 19.9214L119.03 20.3033C118.967 20.3797 118.977 20.4764 119.046 20.5375L119.126 20.6139C119.2 20.675 119.29 20.6852 119.37 20.6292L119.773 20.3288C119.905 20.4255 120.075 20.4204 120.202 20.3033L121.474 19.1678V20.4917C121.474 20.6546 121.612 20.787 121.792 20.787C121.962 20.787 122.1 20.6546 122.1 20.4917V18.6076L122.858 17.9355C123.192 17.966 123.515 17.8336 123.796 17.5536L122.227 16.0463C121.935 16.3213 121.803 16.6319 121.84 16.9425ZM119.783 19.7533L122.047 17.4517C122.084 17.5077 122.126 17.5536 122.179 17.6045C122.222 17.6554 122.275 17.6962 122.328 17.7318L119.948 19.9061L119.783 19.7533Z" fill="#252A26"/>
</svg>
