<svg width="80" height="80" viewBox="0 0 80 80" fill="none" xmlns="http://www.w3.org/2000/svg">
<path fill-rule="evenodd" clip-rule="evenodd" d="M40.0001 53.3337C52.8867 53.3337 63.3334 42.887 63.3334 30.0003C63.3334 17.1137 52.8867 6.66699 40.0001 6.66699C27.1134 6.66699 16.6667 17.1137 16.6667 30.0003C16.6667 42.887 27.1134 53.3337 40.0001 53.3337ZM40.0001 20.0003C39.0532 20.0003 38.4199 21.1365 37.1532 23.4087L36.8255 23.9966C36.4656 24.6423 36.2856 24.9651 36.005 25.1781C35.7244 25.3912 35.3749 25.4702 34.676 25.6284L34.0396 25.7724C31.5799 26.3289 30.3501 26.6071 30.0575 27.5481C29.7649 28.489 30.6033 29.4694 32.2802 31.4303L32.714 31.9375C33.1905 32.4948 33.4288 32.7734 33.5359 33.118C33.6431 33.4627 33.6071 33.8344 33.5351 34.5779L33.4695 35.2547C33.216 37.8709 33.0892 39.179 33.8552 39.7605C34.6213 40.3421 35.7728 39.8119 38.0758 38.7515L38.6716 38.4772C39.326 38.1758 39.6532 38.0252 40.0001 38.0252C40.3469 38.0252 40.6742 38.1758 41.3286 38.4772L41.9244 38.7515C44.2274 39.8119 45.3789 40.3421 46.1449 39.7605C46.911 39.179 46.7842 37.8709 46.5307 35.2547L46.4651 34.5779C46.3931 33.8345 46.357 33.4627 46.4642 33.118C46.5714 32.7734 46.8096 32.4948 47.2861 31.9376L47.72 31.4302C49.3968 29.4694 50.2353 28.489 49.9427 27.5481C49.6501 26.6071 48.4202 26.3289 45.9605 25.7724L45.3242 25.6284C44.6252 25.4702 44.2757 25.3912 43.9951 25.1781C43.7145 24.9651 43.5346 24.6423 43.1746 23.9966L42.8469 23.4087C41.5803 21.1365 40.9469 20.0003 40.0001 20.0003Z" fill="#5D7570"/>
<path d="M14.984 43.3154L9.9736 48.5032C8.17321 50.3674 7.27302 51.2994 6.96151 52.0888C6.25167 53.8874 6.85914 55.8826 8.40469 56.8288C9.08294 57.244 10.3063 57.3734 12.753 57.6322C14.1344 57.7783 14.8252 57.8514 15.4038 58.0731C16.6989 58.5696 17.7065 59.6127 18.1859 60.9538C18.4001 61.5528 18.4706 62.268 18.6118 63.6983C18.8617 66.2317 18.9867 67.4984 19.3877 68.2007C20.3015 69.8009 22.2285 70.4299 23.9656 69.6949C24.728 69.3724 25.6282 68.4403 27.4286 66.5762L35.702 58.0098C26.7103 56.6414 19.1076 51.0466 14.984 43.3154Z" fill="#5D7570"/>
<path d="M44.2981 58.0098L52.5716 66.5762C54.372 68.4403 55.2722 69.3724 56.0345 69.6949C57.7717 70.4299 59.6987 69.8009 60.6125 68.2007C61.0135 67.4984 61.1385 66.2317 61.3884 63.6983C61.5295 62.268 61.6001 61.5528 61.8142 60.9538C62.2937 59.6127 63.3012 58.5696 64.5964 58.0731C65.1749 57.8514 65.8657 57.7783 67.2471 57.6322C69.6939 57.3734 70.9172 57.244 71.5955 56.8288C73.141 55.8826 73.7485 53.8874 73.0387 52.0888C72.7271 51.2994 71.827 50.3674 70.0266 48.5032L65.0162 43.3154C60.8926 51.0466 53.2899 56.6414 44.2981 58.0098Z" fill="#5D7570"/>
</svg>
