<svg width="24" height="25" viewBox="0 0 24 25" fill="none" xmlns="http://www.w3.org/2000/svg">
<path d="M2 16.6436V5.4978C2 4.39963 2.8863 3.50752 3.9824 3.57489C4.95877 3.6349 6.11349 3.75351 7 3.98744C8.04921 4.26431 9.29611 4.85401 10.2823 5.37546C10.5893 5.53782 10.9158 5.65044 11.25 5.71394L11.25 20.8926C10.9471 20.8258 10.6515 20.718 10.3724 20.5692C9.37293 20.0365 8.08145 19.4187 7 19.1334C6.12329 18.902 4.98428 18.7835 4.01486 18.7228C2.90605 18.6535 2 17.7546 2 16.6436Z" fill="#0E0E0E"/>
<path d="M12.75 20.8926C13.0529 20.8258 13.3485 20.718 13.6276 20.5692C14.6271 20.0365 15.9185 19.4187 17 19.1334C17.8767 18.902 19.0157 18.7835 19.9851 18.7228C21.094 18.6535 22 17.7546 22 16.6436V5.43319C22 4.36075 21.1538 3.48041 20.082 3.51775C18.9534 3.55706 17.5469 3.67403 16.5 3.98744C15.5924 4.25916 14.5353 4.80418 13.6738 5.30275C13.3824 5.47145 13.0708 5.59535 12.75 5.67391L12.75 20.8926Z" fill="#0E0E0E"/>
</svg>
