<svg width="24" height="25" viewBox="0 0 24 25" fill="none" xmlns="http://www.w3.org/2000/svg">
<path d="M19.1835 8.30516L16.2188 5.33755C14.1921 3.3089 13.1788 2.29457 12.0904 2.53468C11.0021 2.7748 10.5086 4.12155 9.5217 6.81506L8.85373 8.6381C8.59063 9.35617 8.45908 9.7152 8.22239 9.99292C8.11619 10.1175 7.99536 10.2289 7.86251 10.3245C7.56644 10.5377 7.19811 10.6392 6.46145 10.8423C4.80107 11.3 3.97088 11.5289 3.65804 12.0721C3.5228 12.3069 3.45242 12.5735 3.45413 12.8446C3.45809 13.4715 4.06698 14.081 5.28476 15.3L6.69935 16.7163L2.22345 21.1964C1.92552 21.4946 1.92552 21.9782 2.22345 22.2764C2.52138 22.5746 3.00443 22.5746 3.30236 22.2764L7.77841 17.7961L9.24441 19.2635C10.4699 20.4902 11.0827 21.1036 11.7134 21.1045C11.9792 21.1049 12.2404 21.0358 12.4713 20.9041C13.0192 20.5914 13.2493 19.7551 13.7095 18.0825C13.9119 17.3472 14.013 16.9795 14.2254 16.6835C14.3184 16.554 14.4262 16.4358 14.5468 16.3314C14.8221 16.093 15.1788 15.959 15.8922 15.691L17.7362 14.9981C20.4 13.9973 21.7319 13.4969 21.9667 12.4115C22.2014 11.326 21.1954 10.3191 19.1835 8.30516Z" fill="#959595"/>
</svg>
