<svg width="16" height="16" viewBox="0 0 16 16" fill="none" xmlns="http://www.w3.org/2000/svg">
<path d="M9.36097 9.76988C9.47097 9.70488 9.59097 9.65988 9.72097 9.65988C10.376 9.65988 10.641 10.5299 10.071 10.8749C9.52943 11.2075 8.9065 11.384 8.27097 11.3849H8.12597C6.15597 11.3849 4.56097 9.71488 4.69597 7.70988C4.82097 5.88488 6.42097 4.50488 8.25097 4.50488H8.27597C8.85097 4.50488 9.38597 4.64488 9.86097 4.89488C10.476 5.21488 10.246 6.14488 9.55597 6.14488C9.44597 6.14488 9.34097 6.10988 9.24097 6.05988C8.95097 5.91488 8.62597 5.82488 8.28097 5.82488H8.13597C6.89597 5.82488 5.90097 6.89488 6.02597 8.15988C6.13097 9.25988 7.12097 10.0699 8.23097 10.0699H8.28097C8.67597 10.0699 9.04597 9.95988 9.36097 9.76988Z" fill="#0E0E0E"/>
<path d="M1 8C1 11.86 4.14 15 8 15C11.86 15 15 11.86 15 8C15 4.14 11.86 1 8 1C4.14 1 1 4.14 1 8ZM2.5 8C2.5 4.965 4.965 2.5 8 2.5C11.03 2.5 13.5 4.965 13.5 8C13.5 11.035 11.035 13.5 8 13.5C4.965 13.5 2.5 11.03 2.5 8Z" fill="#0E0E0E"/>
</svg>
