<svg width="24" height="25" viewBox="0 0 24 25" fill="none" xmlns="http://www.w3.org/2000/svg">
<circle cx="9.00098" cy="6.5" r="4" fill="#959595"/>
<ellipse cx="9.00098" cy="17.501" rx="7" ry="4" fill="#959595"/>
<path d="M20.9996 17.5005C20.9996 19.1573 18.9641 20.5004 16.4788 20.5004C17.211 19.7001 17.7145 18.6955 17.7145 17.5018C17.7145 16.3068 17.2098 15.3013 16.4762 14.5005C18.9615 14.5005 20.9996 15.8436 20.9996 17.5005Z" fill="#959595"/>
<path d="M17.9996 6.50073C17.9996 8.15759 16.6565 9.50073 14.9996 9.50073C14.6383 9.50073 14.292 9.43687 13.9712 9.31981C14.4443 8.48772 14.7145 7.52522 14.7145 6.49962C14.7145 5.47477 14.4447 4.51294 13.9722 3.68127C14.2927 3.56446 14.6387 3.50073 14.9996 3.50073C16.6565 3.50073 17.9996 4.84388 17.9996 6.50073Z" fill="#959595"/>
</svg>
