<svg width="20" height="20" viewBox="0 0 20 20" fill="none" xmlns="http://www.w3.org/2000/svg">
<path fill-rule="evenodd" clip-rule="evenodd" d="M1.46447 18.5355C0 17.0711 0 14.714 0 10C0 5.28595 0 2.92893 1.46447 1.46447C2.92893 0 5.28595 0 10 0C14.714 0 17.0711 0 18.5355 1.46447C20 2.92893 20 5.28595 20 10C20 14.714 20 17.0711 18.5355 18.5355C17.0711 20 14.714 20 10 20C5.28595 20 2.92893 20 1.46447 18.5355ZM6.46967 12.0303C6.76256 12.3232 7.23744 12.3232 7.53033 12.0303L10 9.56066L12.4697 12.0303C12.7626 12.3232 13.2374 12.3232 13.5303 12.0303C13.8232 11.7374 13.8232 11.2626 13.5303 10.9697L10.5303 7.96967C10.3897 7.82902 10.1989 7.75 10 7.75C9.80109 7.75 9.61032 7.82902 9.46967 7.96967L6.46967 10.9697C6.17678 11.2626 6.17678 11.7374 6.46967 12.0303Z" fill="#454C44"/>
</svg>
