<svg width="20" height="20" viewBox="0 0 20 20" fill="none" xmlns="http://www.w3.org/2000/svg">
<path fill-rule="evenodd" clip-rule="evenodd" d="M1.46447 1.46447C0 2.92893 0 5.28595 0 10C0 14.714 0 17.0711 1.46447 18.5355C2.92893 20 5.28595 20 10 20C14.714 20 17.0711 20 18.5355 18.5355C20 17.0711 20 14.714 20 10C20 5.28595 20 2.92893 18.5355 1.46447C17.0711 0 14.714 0 10 0C5.28595 0 2.92893 0 1.46447 1.46447ZM6.46967 7.96967C6.76256 7.67678 7.23744 7.67678 7.53033 7.96967L10 10.4393L12.4697 7.96967C12.7626 7.67678 13.2374 7.67678 13.5303 7.96967C13.8232 8.26256 13.8232 8.73744 13.5303 9.03033L10.5303 12.0303C10.3897 12.171 10.1989 12.25 10 12.25C9.80109 12.25 9.61032 12.171 9.46967 12.0303L6.46967 9.03033C6.17678 8.73744 6.17678 8.26256 6.46967 7.96967Z" fill="#454C44"/>
</svg>
