<svg width="24" height="24" viewBox="0 0 24 24" fill="none" xmlns="http://www.w3.org/2000/svg">
<path fill-rule="evenodd" clip-rule="evenodd" d="M1.6061 6.08087C2.11373 5.86331 2.7016 6.09846 2.91916 6.60609L2.00001 7.00001C2.91916 6.60609 2.9193 6.60642 2.91916 6.60609L2.91864 6.60489C2.91836 6.60424 2.91857 6.60472 2.91864 6.60489L2.92256 6.61376C2.92657 6.62277 2.93345 6.63809 2.94325 6.65929C2.96284 6.70171 2.99403 6.76759 3.03702 6.85358C3.12308 7.0257 3.256 7.27747 3.43743 7.58228C3.80143 8.1938 4.35445 9.00825 5.10781 9.81956C5.28538 10.0108 5.4733 10.2011 5.67179 10.3881C5.68009 10.3956 5.68829 10.4033 5.6964 10.4112C7.18108 11.8014 9.25233 13 12 13C13.209 13 14.2784 12.7692 15.2209 12.3982C16.447 11.9156 17.4746 11.1891 18.3156 10.3997C19.2653 9.50839 19.9628 8.55005 20.4233 7.81101C20.6526 7.44292 20.8207 7.13319 20.9299 6.9191C20.9845 6.81217 21.0241 6.72944 21.0492 6.67562C21.0617 6.64872 21.0706 6.62908 21.0759 6.61729L21.0809 6.60609C21.2986 6.09874 21.8864 5.86337 22.3939 6.08087C22.9016 6.29842 23.1367 6.8863 22.9192 7.39393L22 7.00001C22.9192 7.39393 22.9193 7.3937 22.9192 7.39393L22.917 7.39895L22.9134 7.40718L22.902 7.43302C22.8925 7.45435 22.8791 7.48378 22.8619 7.52072C22.8274 7.59458 22.7775 7.69856 22.7116 7.82775C22.5799 8.08591 22.384 8.44609 22.1207 8.86869C21.7181 9.51484 21.1521 10.3162 20.4097 11.1243L21.2071 11.9217C21.5976 12.3123 21.5976 12.9454 21.2071 13.336C20.8166 13.7265 20.1834 13.7265 19.7929 13.336L18.9527 12.4958C18.3885 12.9515 17.757 13.3814 17.0558 13.7522L17.8382 14.9546C18.1394 15.4175 18.0083 16.037 17.5454 16.3382C17.0825 16.6394 16.463 16.5083 16.1618 16.0454L15.1764 14.5309C14.4974 14.739 13.772 14.8865 13 14.9557V16.5C13 17.0523 12.5523 17.5 12 17.5C11.4477 17.5 11 17.0523 11 16.5V14.9558C10.2254 14.8866 9.5002 14.7388 8.8234 14.5313L7.8382 16.0454C7.53699 16.5083 6.91755 16.6394 6.45463 16.3382C5.99171 16.037 5.86062 15.4175 6.16183 14.9546L6.94423 13.7522C6.24411 13.3816 5.61252 12.9518 5.04752 12.4956L4.20712 13.336C3.8166 13.7265 3.18343 13.7265 2.79291 13.336C2.40238 12.9454 2.40238 12.3123 2.79291 11.9217L3.59035 11.1243C2.74536 10.2045 2.12778 9.29225 1.71885 8.60525C1.50966 8.25381 1.35351 7.9587 1.24817 7.74801C1.19546 7.64259 1.15535 7.55808 1.12758 7.49796C1.11369 7.46789 1.10288 7.4439 1.09511 7.42643L1.08572 7.40514L1.08273 7.39826L1.08166 7.39577L1.08123 7.39477C1.08104 7.39434 1.08087 7.39393 2.00001 7.00001L1.08123 7.39477C0.863674 6.88714 1.09847 6.29842 1.6061 6.08087Z" fill="#F44942"/>
</svg>
