<svg width="24.000000" height="24.000000" viewBox="0 0 24 24" fill="none" xmlns="http://www.w3.org/2000/svg" xmlns:xlink="http://www.w3.org/1999/xlink">
	<desc>
			Created with Pixso.
	</desc>
	<defs>
		<clipPath id="clip25_6093">
			<rect id="icon/google" width="24.000000" height="24.000000" fill="white" fill-opacity="0"/>
		</clipPath>
	</defs>
	<rect id="icon/google" width="24.000000" height="24.000000" fill="#FFFFFF" fill-opacity="0"/>
	<g clip-path="url(#clip25_6093)">
		<path id="Vector" d="M21.8 10.04L21 10.04L21 10L12 10L12 14L17.65 14C16.82 16.32 14.61 18 12 18C8.68 18 6 15.31 6 12C6 8.68 8.68 6 12 6C13.53 6 14.92 6.57 15.98 7.51L18.8 4.69C17.02 3.02 14.63 2 12 2C6.47 2 2 6.47 2 12C2 17.52 6.47 22 12 22C17.52 22 22 17.52 22 12C22 11.32 21.92 10.67 21.8 10.04Z" fill="#F3C8CA" fill-opacity="1.000000" fill-rule="nonzero"/>
		<path id="Vector" d="M3.15 7.34L6.43 9.75C7.32 7.55 9.48 6 12 6C13.52 6 14.92 6.57 15.98 7.51L18.8 4.69C17.02 3.02 14.63 2 12 2C8.16 2 4.82 4.16 3.15 7.34Z" fill="#FF3D00" fill-opacity="1.000000" fill-rule="nonzero"/>
		<path id="Vector" d="M12 22C14.58 22 16.92 21.01 18.7 19.4L15.6 16.78C14.57 17.57 13.3 18 12 18C9.39 18 7.19 16.34 6.35 14.02L3.09 16.53C4.75 19.77 8.11 22 12 22Z" fill="#4CAF50" fill-opacity="1.000000" fill-rule="nonzero"/>
		<path id="Vector" d="M21.8 10.04L21 10.04L21 10L12 10L12 14L17.65 14C17.25 15.1 16.54 16.07 15.6 16.78L15.6 16.78L18.7 19.4C18.48 19.6 22 17 22 12C22 11.32 21.92 10.67 21.8 10.04Z" fill="#1976D2" fill-opacity="1.000000" fill-rule="nonzero"/>
	</g>
</svg>
