<svg width="32" height="32" viewBox="0 0 32 32" fill="none" xmlns="http://www.w3.org/2000/svg">
<rect width="32" height="32" rx="8" fill="#1F4DD6"/>
<path d="M7.968 19H4.504V18.6L7.024 15.552H4.72V15H7.88L7.872 15.4L5.36 18.448H7.968V19ZM11.0208 14.944C11.5914 14.944 12.0768 15.1467 12.4768 15.552C12.8768 15.952 13.0768 16.4347 13.0768 17C13.0768 17.5653 12.8768 18.048 12.4768 18.448C12.0768 18.848 11.5914 19.048 11.0208 19.048C10.4501 19.048 9.96475 18.848 9.56475 18.448C9.17008 18.048 8.97275 17.5653 8.97275 17C8.97275 16.4293 9.17275 15.944 9.57275 15.544C9.97275 15.144 10.4554 14.944 11.0208 14.944ZM11.0128 15.504C10.6128 15.504 10.2688 15.648 9.98075 15.936C9.69275 16.2187 9.54875 16.5733 9.54875 17C9.54875 17.4267 9.69008 17.7813 9.97275 18.064C10.2608 18.3467 10.6074 18.488 11.0128 18.488C11.4181 18.488 11.7648 18.3467 12.0528 18.064C12.3408 17.7813 12.4848 17.4267 12.4848 17C12.4848 16.5733 12.3408 16.2187 12.0528 15.936C11.7648 15.648 11.4181 15.504 11.0128 15.504ZM16.1223 14.944C16.693 14.944 17.1783 15.1467 17.5783 15.552C17.9783 15.952 18.1783 16.4347 18.1783 17C18.1783 17.5653 17.9783 18.048 17.5783 18.448C17.1783 18.848 16.693 19.048 16.1223 19.048C15.5516 19.048 15.0663 18.848 14.6663 18.448C14.2716 18.048 14.0743 17.5653 14.0743 17C14.0743 16.4293 14.2743 15.944 14.6743 15.544C15.0743 15.144 15.557 14.944 16.1223 14.944ZM16.1143 15.504C15.7143 15.504 15.3703 15.648 15.0823 15.936C14.7943 16.2187 14.6503 16.5733 14.6503 17C14.6503 17.4267 14.7916 17.7813 15.0743 18.064C15.3623 18.3467 15.709 18.488 16.1143 18.488C16.5196 18.488 16.8663 18.3467 17.1543 18.064C17.4423 17.7813 17.5863 17.4267 17.5863 17C17.5863 16.5733 17.4423 16.2187 17.1543 15.936C16.8663 15.648 16.5196 15.504 16.1143 15.504ZM24.6559 14.944C25.1999 14.944 25.6239 15.112 25.9279 15.448C26.2372 15.784 26.3919 16.2507 26.3919 16.848V19H25.8159V16.872C25.8159 16.4133 25.7039 16.072 25.4799 15.848C25.2612 15.6187 24.9599 15.504 24.5759 15.504C24.1492 15.504 23.8105 15.6427 23.5599 15.92C23.3145 16.1973 23.1919 16.5893 23.1919 17.096V19H22.6159V16.872C22.6159 16.4133 22.5039 16.072 22.2799 15.848C22.0612 15.6187 21.7599 15.504 21.3759 15.504C20.9545 15.504 20.6185 15.6427 20.3679 15.92C20.1225 16.1973 19.9999 16.5893 19.9999 17.096V19H19.4159V15H19.8319L19.8639 15.912C20.0132 15.5867 20.2319 15.344 20.5199 15.184C20.8079 15.024 21.1199 14.944 21.4559 14.944C21.8452 14.944 22.1759 15.0373 22.4479 15.224C22.7199 15.4053 22.9092 15.672 23.0159 16.024C23.1492 15.6667 23.3679 15.3973 23.6719 15.216C23.9759 15.0347 24.3039 14.944 24.6559 14.944Z" fill="white"/>
</svg>
